<?xml version="1.0" encoding="utf-8"?>
<!-- Generator: Adobe Illustrator 22.1.0, SVG Export Plug-In . SVG Version: 6.00 Build 0)  -->
<svg version="1.1" id="Capa_1" xmlns="http://www.w3.org/2000/svg" xmlns:xlink="http://www.w3.org/1999/xlink" x="0px" y="0px"
	 viewBox="0 0 512.2 512.2" style="enable-background:new 0 0 512.2 512.2;" xml:space="preserve">
<style type="text/css">
	.st0{fill:#FFFFFF;}
</style>
<g>
	<g>
		<path class="st0" d="M33.1,228.2c1.7,4,5.5,6.6,9.9,6.6h116.9v266.7c0,5.9,4.8,10.7,10.7,10.7h170.7c5.9,0,10.7-4.8,10.7-10.7
			V234.8h117.3c4.3,0,8.2-2.6,9.9-6.6c1.6-4,0.7-8.6-2.3-11.6L264,3.1c-2-2-4.7-3.1-7.6-3.1c-2.8,0-5.5,1.1-7.6,3.1L35.4,216.6
			C32.4,219.7,31.5,224.3,33.1,228.2z"/>
	</g>
</g>
</svg>
